<mxfile host="app.diagrams.net" modified="2024-04-13T16:51:29.497Z" agent="Mozilla/5.0 (Windows NT 10.0; Win64; x64) AppleWebKit/537.36 (KHTML, like Gecko) Chrome/123.0.0.0 Safari/537.36" version="24.2.5" etag="BT6ORl4xsBmt6_vCuYFQ" type="github">
  <diagram name="Page-1" id="OultFM1YpsbaT2cTPxSI">
    <mxGraphModel>
      <root>
        <mxCell id="0" />
        <mxCell id="1" parent="0" />
      </root>
    </mxGraphModel>
  </diagram>
</mxfile>
